<svg version="1.1" xmlns="http://www.w3.org/2000/svg" xmlns:xlink="http://www.w3.org/1999/xlink" width="480.66023" height="82.69387" viewBox="0,0,480.66023,82.69387"><g transform="translate(0.44434,24.99634)"><g data-paper-data="{&quot;isPaintingLayer&quot;:true}" fill="#47592c" fill-rule="nonzero" stroke="none" stroke-width="0" stroke-linecap="butt" stroke-linejoin="miter" stroke-miterlimit="10" stroke-dasharray="" stroke-dashoffset="0" style="mix-blend-mode: normal"><path d="M-0.44434,38.88941c0,-14.91223 0,-63.88575 0,-63.88575h417.89767c0.00595,0.6205 0.01276,1.24339 0.02018,1.86823c-0.50043,1.3724 -0.31629,2.96192 0.06181,4.62069c0.10399,7.38144 0.20739,14.88455 -0.08905,21.81976c-0.10601,2.48007 -0.30255,4.95282 -0.55706,7.42087l-1.18448,3.43196c0,0 -1.07911,3.23734 -0.08545,6.56013c-0.63225,4.42147 -1.30961,8.83924 -1.84311,13.26854c-0.93617,7.77241 -2.11668,15.51473 -3.00309,23.29297c-0.00558,0.04895 -0.01139,0.09793 -0.01741,0.14694c-145.2911,0 -357.27603,-0.00001 -393.0414,-0.00001c-10.21772,0 -18.1586,-10.51006 -18.1586,-18.54433z"/><path d="M460.89811,56.91224c-0.0515,0.17623 -0.10229,0.35015 -0.15228,0.5215c-0.12298,0 -0.24606,0 -0.36922,0z"/><path d="M462.05729,57.69752c-35.76537,0 -247.75029,0 -393.04139,0.00001c-0.00603,-0.04901 -0.01183,-0.09799 -0.01741,-0.14693c-0.88641,-7.77824 -2.06692,-15.52057 -3.0031,-23.29297c-0.5335,-4.4293 -1.21086,-8.84707 -1.84311,-13.26854c0.99366,-3.32279 -0.08545,-6.56014 -0.08545,-6.56014l-1.18448,-3.43195c-0.25452,-2.46805 -0.45105,-4.9408 -0.55706,-7.42087c-0.29644,-6.93521 -0.19304,-14.43832 -0.08906,-21.81976c0.3781,-1.65877 0.56224,-3.24829 0.06181,-4.62069c0.00742,-0.62484 0.01423,-1.24772 0.02018,-1.86823h417.89767c0,0 0,48.97352 0,63.88575c0,8.03426 -7.94088,18.54433 -18.1586,18.54433z" data-paper-data="{&quot;index&quot;:null}"/></g></g></svg>