<svg version="1.1" xmlns="http://www.w3.org/2000/svg" xmlns:xlink="http://www.w3.org/1999/xlink" width="131.47149" height="33.69844" viewBox="0,0,131.47149,33.69844"><g transform="translate(-174.26425,-163.15078)"><g data-paper-data="{&quot;isPaintingLayer&quot;:true}" fill-rule="nonzero" stroke="none" stroke-linecap="butt" stroke-linejoin="miter" stroke-miterlimit="10" stroke-dasharray="" stroke-dashoffset="0" style="mix-blend-mode: normal"><path d="M174.26425,192.13391c0,-7.09783 0,-20.12322 0,-24.12415c0,-2.29663 2.5253,-4.85898 5.94008,-4.85898c9.80446,0 59.58692,0 110.62935,0c0.78602,4.99731 6.78547,8.88341 14.06991,8.88341c0.12677,0 0.25315,-0.00118 0.37913,-0.00352c0.46229,3.9934 0.7558,8.26427 -0.55476,11.87027c-0.05085,0.13991 -0.10357,0.27915 -0.15804,0.4178c-1.47563,-0.36828 -3.06352,-0.56867 -4.71766,-0.56867c-7.81879,0 -14.15717,4.47715 -14.15717,10c0,1.08176 0.24317,2.12341 0.69302,3.09915c-48.89006,0 -95.50882,0 -105.44363,0c-3.80768,0 -6.68022,-1.88709 -6.68022,-4.71532z" fill="#7b9d4d" stroke-width="0"/><path d="M299.05552,196.84922c-10.3593,0 -60.60435,0 -111.72025,0c0.00485,-0.10758 0.00729,-0.2156 0.00729,-0.32401c0,-4.4872 -4.18411,-8.28411 -9.94682,-9.55032c1.7194,-2.89604 0.22168,-8.85876 -2.55295,-11.91935c4.22921,-1.72948 7.07427,-4.96026 7.07427,-8.66041c0,-1.1356 -0.26798,-2.22699 -0.76171,-3.24434c53.73841,0 108.32324,0 118.64032,0c3.41478,0 5.94008,2.56235 5.94008,4.85898c0,4.00092 0,17.02632 0,24.12415c0,2.82823 -2.87255,4.71532 -6.68022,4.71532z" data-paper-data="{&quot;index&quot;:null}" fill="#7b9d4d" stroke-width="0"/><text transform="translate(178.86434,184.79441) scale(0.41555,0.41555)" font-size="40" xml:space="preserve" fill="#deffb2" fill-rule="nonzero" stroke="none" stroke-width="1" stroke-linecap="butt" stroke-linejoin="miter" stroke-miterlimit="10" stroke-dasharray="" stroke-dashoffset="0" font-family="Handwriting" font-weight="normal" text-anchor="start" style="mix-blend-mode: normal"><tspan x="0" dy="0">SINGLEPLAYER</tspan></text></g></g></svg>