<svg version="1.1" xmlns="http://www.w3.org/2000/svg" xmlns:xlink="http://www.w3.org/1999/xlink" width="522.94232" height="414.71686" viewBox="0,0,522.94232,414.71686"><g transform="translate(21.47116,26.20327)"><g data-paper-data="{&quot;isPaintingLayer&quot;:true}" stroke="none" stroke-miterlimit="10" stroke-dasharray="" stroke-dashoffset="0" style="mix-blend-mode: normal"><path d="M-21.47116,388.51359v-414.71686h522.94232v414.71686z" fill="#000000" fill-rule="nonzero" stroke-width="0" stroke-linecap="butt" stroke-linejoin="miter"/><path d="" data-paper-data="{&quot;origPos&quot;:null}" fill="#000000" fill-rule="nonzero" stroke-width="1" stroke-linecap="butt" stroke-linejoin="miter"/><path d="M350.67818,67.94636v-52.80417h69.16102v52.80417z" fill="none" fill-rule="nonzero" stroke-width="0" stroke-linecap="butt" stroke-linejoin="miter"/><g fill="#ffffff" fill-rule="evenodd" stroke-width="1" stroke-linecap="round" stroke-linejoin="round"><path d="M84.92366,70.43259c0,1.91823 -1.3044,3.29934 -3.60625,4.83389c-3.45278,2.37856 -7.90303,3.8364 -13.35074,3.8364c-13.50418,0 -27.0084,-11.20233 -27.0084,-27.39202c0,-16.18969 13.50417,-27.39202 27.0084,-27.39202c5.44771,0 9.89796,1.45784 13.35074,3.8364c2.30184,1.53455 3.60625,2.91566 3.60625,4.83389c0,2.37856 -1.84145,3.75967 -3.83639,3.75967c-1.61131,0 -2.68548,-0.76731 -3.68297,-1.53455c-1.68802,-1.3044 -5.06409,-2.99242 -9.36087,-2.99242c-9.59106,0 -18.41482,8.28666 -18.41482,19.48904c0,11.20233 8.82376,19.48903 18.41482,19.48903c4.29678,0 7.67285,-1.68803 9.36087,-2.99243c0.99749,-0.7673 2.07166,-1.53455 3.68297,-1.53455c1.99493,0 3.83639,1.38113 3.83639,3.75969z"/><path d="M129.6563,58.69315c0,13.73438 -11.43251,20.40978 -20.25627,20.40978c-8.82376,0 -20.17957,-6.67535 -20.17957,-20.40978c0,-13.65765 11.35581,-20.48647 20.17957,-20.48647c8.82376,0 20.25627,6.82882 20.25627,20.48647zM97.27692,58.69315c0,8.67028 6.21501,13.35075 12.1231,13.35075c5.98482,0 12.19981,-4.68042 12.19981,-13.35075c0,-8.74704 -6.21499,-13.42745 -12.19981,-13.42745c-5.9081,0 -12.1231,4.6804 -12.1231,13.42745z"/><path d="M173.9286,56.00764v18.87517c0,2.22513 -1.76475,4.06659 -3.98988,4.06659c-2.22513,0 -4.06659,-1.84145 -4.06659,-4.06659v-18.87517c0,-7.67284 -4.3735,-10.74198 -9.36086,-10.74198c-7.36593,0 -10.58852,6.59862 -11.0489,9.89796v19.71919c0,2.22513 -1.84145,4.06659 -4.06659,4.06659c-2.22513,0 -4.06659,-1.84145 -4.06659,-4.06659v-32.30268c0,-2.30184 1.84146,-4.14334 4.06659,-4.14334c2.22513,0 4.06659,1.84145 4.06659,4.14334v5.06408c0.38362,-2.68547 4.98737,-9.36086 13.73437,-9.36086c7.44264,0 14.73186,4.68041 14.73186,17.72424z"/><path d="M219.73545,56.00764v18.87517c0,2.22513 -1.76474,4.06659 -3.98987,4.06659c-2.22513,0 -4.0666,-1.84145 -4.0666,-4.06659v-18.87517c0,-7.67284 -4.37351,-10.74198 -9.36087,-10.74198c-7.36593,0 -10.5885,6.59862 -11.04889,9.89796v19.71919c0,2.22513 -1.84146,4.06659 -4.06659,4.06659c-2.22513,0 -4.0666,-1.84145 -4.0666,-4.06659v-32.30268c0,-2.30184 1.84146,-4.14334 4.0666,-4.14334c2.22513,0 4.06659,1.84145 4.06659,4.14334v5.06408c0.38362,-2.68547 4.98736,-9.36086 13.73436,-9.36086c7.44264,0 14.73187,4.68041 14.73187,17.72424z"/><path d="M266.53975,57.31204c0,3.14586 -1.76475,4.37351 -5.06408,4.37351l-25.704,-0.07672c0.84402,7.13573 6.4452,10.66526 12.58345,10.66526c3.14586,0 5.29429,-0.76728 7.67285,-2.22512c1.3044,-0.69054 2.14842,-1.22764 3.22258,-1.22764c1.76474,0 2.83896,1.22764 2.83896,2.91566c0,0.99749 -0.38364,2.07166 -2.07166,3.45278c-2.91566,2.37856 -7.13574,3.75968 -11.96963,3.75968c-9.97469,0 -20.63995,-6.36845 -20.63995,-20.25629c0,-13.81113 11.12561,-20.48647 19.87266,-20.48647c8.74705,0 19.25885,6.90554 19.25885,19.10536zM235.77167,55.77745h22.86505c-0.69054,-7.28922 -6.21501,-10.51178 -11.35581,-10.51178c-5.06409,0 -10.8187,3.22256 -11.50924,10.51178z"/><path d="M307.12909,70.04897c0,1.84146 -1.3044,2.83894 -2.14842,3.68296c-3.29934,3.45278 -7.59613,5.21752 -12.89035,5.21752c-9.13067,0 -20.17957,-6.67535 -20.17957,-20.33305c0,-13.73437 11.0489,-20.40976 20.17958,-20.40976c5.29427,0 9.59106,1.76474 12.89036,5.21752c0.84402,0.84402 2.14842,1.84145 2.14842,3.68296c0,1.91823 -1.61132,3.14586 -3.29935,3.14586c-1.53455,0 -2.68547,-0.844 -3.29934,-1.45782c-2.07165,-2.45533 -5.29427,-3.52948 -8.13322,-3.52948c-6.4452,0 -12.43002,4.60369 -12.43002,13.35073c0,8.67029 5.98482,13.27403 12.43002,13.27403c2.83895,0 6.06153,-1.0742 8.13322,-3.52948c0.61382,-0.61382 1.76474,-1.45783 3.29934,-1.45783c1.68803,0 3.29935,1.22764 3.29935,3.14587z"/><path d="M334.98149,74.42246c0,3.14586 -3.60626,4.52698 -7.90304,4.52698c-4.60369,0 -9.13067,-1.61132 -9.13067,-10.43508v-23.32543h-2.91567c-1.99494,0 -3.29934,-1.30441 -3.29934,-3.29934c0,-1.91823 1.3044,-3.22258 3.29934,-3.22258h2.91567v-5.98481c0,-2.14842 1.84146,-3.98988 3.98988,-3.98988c2.22514,0 4.06659,1.84147 4.06659,3.98988v5.98481h5.60119c1.99494,0 3.37605,1.3044 3.37605,3.22258c0,1.99493 -1.38111,3.29934 -3.37605,3.29934h-5.60119v23.40215c0,2.30184 0.92074,3.37606 2.68548,3.37606c0.99749,0 2.14841,-0.30692 2.99243,-0.38363c1.91823,-0.30691 3.29934,0.92073 3.29934,2.83895z"/><path d="M378.71669,57.31204c0,3.14586 -1.76475,4.37351 -5.06409,4.37351l-25.704,-0.07672c0.84402,7.13573 6.4452,10.66526 12.58344,10.66526c3.14587,0 5.29429,-0.76728 7.67285,-2.22512c1.3044,-0.69054 2.14842,-1.22764 3.22258,-1.22764c1.76474,0 2.83895,1.22764 2.83895,2.91566c0,0.99749 -0.38363,2.07166 -2.07165,3.45278c-2.91566,2.37856 -7.13575,3.75968 -11.96964,3.75968c-9.97469,0 -20.63995,-6.36845 -20.63995,-20.25629c0,-13.81113 11.12562,-20.48647 19.87266,-20.48647c8.74705,0 19.25885,6.90554 19.25885,19.10536zM347.9486,55.77745h22.86505c-0.69054,-7.28922 -6.21501,-10.51178 -11.35581,-10.51178c-5.06408,0 -10.81871,3.22256 -11.50924,10.51178z"/><path d="M423.6028,27.84832v47.11125c0,2.22513 -1.91822,4.06658 -4.14335,4.06658c-2.22514,0 -4.06659,-1.84144 -4.06659,-4.06658v-4.14336c-0.53711,3.45278 -5.29427,8.28666 -12.58344,8.28666c-8.51685,0 -18.72175,-6.59864 -18.72175,-20.48649c0,-13.65765 10.28161,-20.40976 18.72175,-20.40976c5.67791,0 10.58851,2.91567 12.58344,7.36594v-3.06916c0,-0.2302 0,-0.53709 0.07672,-0.76729v-13.88785c0,-2.22514 1.84145,-4.06659 3.98987,-4.06659c2.22514,0 4.14335,1.84146 4.14335,4.06659zM415.77649,58.61639c0,-9.59106 -6.4452,-13.42746 -11.66272,-13.42746c-5.60118,0 -11.89291,4.3735 -11.89291,13.42746c0,9.13067 6.29173,13.50418 11.89291,13.50418c5.21751,0 11.66272,-3.98987 11.66272,-13.50418z"/><path d="M442.09435,29.15272v29.38696c0,2.45533 -2.07166,4.52698 -4.45027,4.52698c-2.53204,0 -4.6037,-2.07165 -4.6037,-4.52697v-29.38696c0,-2.45533 2.07166,-4.52697 4.6037,-4.52697c2.37856,0 4.45027,2.07165 4.45027,4.52698zM432.8102,73.96203c0,-2.60876 2.14842,-4.75718 4.83389,-4.75718c2.53205,0 4.6804,2.14843 4.6804,4.75718c0,2.68547 -2.14841,4.83389 -4.6804,4.83389c-2.68547,0 -4.83389,-2.14841 -4.83389,-4.83389z"/></g><g fill-rule="nonzero" stroke-width="1" stroke-linecap="butt" stroke-linejoin="miter"><path d="M313.29492,278.87644c0,15.93231 -7.46771,29.39236 -22.93667,32.13933h-116.81692c-15.46891,-2.74691 -22.93667,-16.20702 -22.93667,-32.13933c0,-12.36128 7.46771,-23.62378 18.13598,-27.74423c-0.80012,-1.64819 2.13363,-1.64819 2.13363,-3.57103c0,-6.04329 1.33351,-12.63598 7.20104,-12.63598c0.80012,0 1.33351,0.27471 1.8669,0.27471c-1.06684,-2.19755 1.8669,-2.47226 1.8669,-4.94451c0,-9.61432 4.2673,-18.95398 13.33529,-18.95398c2.66702,0 4.53397,0.54936 7.20104,1.64819v0c0,-15.93231 12.53517,-28.84295 27.73736,-28.56829c15.46891,0 27.73736,12.63598 28.00403,28.29359c10.13478,-4.12044 22.13655,-2.19755 30.40438,6.31799c8.53455,8.51554 7.46771,21.70089 2.93374,32.41398c10.93489,3.84574 21.60311,14.83353 21.86983,27.46952z" data-paper-data="{&quot;origPos&quot;:null}" fill="#00d655"/><path d="M313.0282,272.76676c0,15.93231 -12.53517,28.56829 -28.00403,28.56829h-106.6821c-15.46891,0 -28.00403,-12.63598 -27.73736,-28.84295c0,-12.36128 7.46771,-22.52501 18.13598,-26.6454c-0.80012,-1.64819 -1.33351,-3.29633 -1.33351,-5.21922c0,-6.04329 4.80069,-10.9878 10.66822,-10.9878c0.80012,0 1.33351,0.27471 1.8669,0.27471c-0.80012,-1.92284 -1.33351,-4.12044 -1.33351,-6.5927c0,-9.33961 7.46771,-17.03109 16.53575,-17.03109c2.66702,0 4.53397,0.54936 7.20104,1.64819v0c0,-15.93231 12.53517,-28.84295 27.73736,-28.84295c15.46891,0 27.73736,12.63598 28.00403,28.29359c10.13478,-4.12044 22.13655,-2.19755 30.40438,6.31799c8.26783,8.51554 10.13478,21.42619 5.60081,32.13933c10.93489,3.84574 18.93609,14.28412 18.93609,26.92011z" data-paper-data="{&quot;origPos&quot;:null}" fill="#00ff66"/><path d="M285.02393,301.33505h-34.9384l-70.41019,-72.24478c-0.80012,-1.92284 -1.06684,-3.57103 -1.06684,-5.76858c0,-9.33961 7.46771,-17.03109 16.53575,-17.03109c2.66702,0 4.53397,0.54936 7.20104,1.64819c0,-15.93231 12.53517,-28.84295 27.73736,-29.11766c15.46891,0 27.73736,12.63598 28.00403,28.29359c10.13478,-4.12044 22.13655,-2.19755 30.40438,6.31799c8.26783,8.79025 10.13478,21.42619 5.60081,32.13933c10.93489,4.12044 18.93609,14.55883 18.93609,27.19481c0,15.93231 -12.53517,28.56829 -28.00403,28.56829z" data-paper-data="{&quot;origPos&quot;:null}" fill="#00ef60"/><path d="M266.37345,244.89413l-38.82692,38.82692c-1.57847,1.57812 -3.64684,2.36696 -5.71551,2.36696c-2.06872,0 -4.13739,-0.78884 -5.71546,-2.36696l-20.68625,-20.68624c-3.15664,-3.15619 -3.15619,-8.27404 0,-11.43063c3.15619,-3.15659 8.27398,-3.15659 11.43062,0l14.97114,14.97154l33.11186,-33.11226c3.15619,-3.15659 8.27398,-3.15659 11.43062,0c3.15664,3.15659 3.15664,8.27443 0,11.43062z" fill="#00d655"/><path d="M266.78981,236.56679l-38.82692,38.82692c-1.57847,1.57812 -3.64684,2.36696 -5.71551,2.36696c-2.06872,0 -4.13739,-0.78884 -5.71546,-2.36696l-20.68624,-20.68625c-3.15664,-3.15619 -3.15619,-8.27403 0,-11.43062c3.15619,-3.15659 8.27398,-3.15659 11.43062,0l14.97114,14.97154l33.11185,-33.11226c3.15619,-3.15659 8.27399,-3.15659 11.43063,0c3.15664,3.15659 3.15664,8.27443 0,11.43062z" fill="#ffffff"/></g></g></g></svg>