<svg version="1.1" xmlns="http://www.w3.org/2000/svg" xmlns:xlink="http://www.w3.org/1999/xlink" width="255.30626" height="255.30626" viewBox="0,0,255.30626,255.30626"><g transform="translate(-112.48651,-52.48651)"><g data-paper-data="{&quot;isPaintingLayer&quot;:true}" fill="none" fill-rule="nonzero" stroke-linejoin="miter" stroke-miterlimit="10" stroke-dasharray="" stroke-dashoffset="0" style="mix-blend-mode: normal"><path d="M124.98651,180c0,-63.5202 51.49329,-115.01349 115.01349,-115.01349c63.5202,0 115.01349,51.49329 115.01349,115.01349c0,63.5202 -51.49329,115.01349 -115.01349,115.01349c-63.5202,0 -115.01349,-51.49329 -115.01349,-115.01349z" stroke="#ff0000" stroke-width="25" stroke-linecap="butt"/><path d="M160.94389,100.94389l158.11223,158.11223" stroke="#ff0000" stroke-width="25" stroke-linecap="round"/><path d="M112.70838,180.25057c0,-70.43961 57.10258,-127.54219 127.54219,-127.54219c70.43961,0 127.54219,57.10258 127.54219,127.54219c0,70.43961 -57.10258,127.54219 -127.54219,127.54219c-70.43961,0 -127.54219,-57.10258 -127.54219,-127.54219z" stroke="none" stroke-width="0" stroke-linecap="butt"/></g></g></svg>